<?xml version="1.0" standalone="no"?>
<!DOCTYPE svg PUBLIC "-//W3C//DTD SVG 20010904//EN"
 "http://www.w3.org/TR/2001/REC-SVG-20010904/DTD/svg10.dtd">
<svg version="1.0" xmlns="http://www.w3.org/2000/svg"
 width="260.000000pt" height="260.000000pt" viewBox="0 0 260.000000 260.000000"
 preserveAspectRatio="xMidYMid meet">
<metadata>
Created by potrace 1.11, written by Peter Selinger 2001-2013
</metadata>
<g transform="translate(0.000000,260.000000) scale(0.100000,-0.100000)"
fill="#000000" stroke="none">
<path d="M1191 2159 c-284 -37 -548 -229 -676 -492 -180 -372 -80 -818 242
-1077 41 -33 102 -74 134 -91 l59 -29 0 570 0 570 585 0 c322 0 585 2 585 5 0
3 -14 34 -31 68 -130 259 -388 440 -679 476 -94 12 -126 12 -219 0z"/>
<path d="M1470 940 c-3 -42 2 -525 5 -528 2 -2 37 6 76 18 225 68 417 226 529
432 l41 77 -325 3 c-179 2 -326 1 -326 -2z"/>
</g>
</svg>
