<?xml version="1.0" standalone="no"?>
<!DOCTYPE svg PUBLIC "-//W3C//DTD SVG 20010904//EN"
 "http://www.w3.org/TR/2001/REC-SVG-20010904/DTD/svg10.dtd">
<svg version="1.0" xmlns="http://www.w3.org/2000/svg"
 width="260.000000pt" height="260.000000pt" viewBox="0 0 260.000000 260.000000"
 preserveAspectRatio="xMidYMid meet">
<metadata>
Created by potrace 1.11, written by Peter Selinger 2001-2013
</metadata>
<g transform="translate(0.000000,260.000000) scale(0.100000,-0.100000)"
fill="#000000" stroke="none">
<path d="M1195 2160 c-381 -53 -674 -327 -756 -705 -16 -77 -16 -273 0 -350
46 -212 164 -402 331 -530 60 -46 160 -105 178 -105 9 0 12 141 12 565 l0 565
580 0 c457 0 580 3 580 13 -1 24 -40 99 -91 172 -89 129 -224 242 -365 306
-129 59 -332 88 -469 69z"/>
<path d="M1460 680 c0 -191 3 -270 11 -270 60 0 224 66 316 127 137 90 292
275 327 391 l7 22 -330 0 -331 0 0 -270z"/>
</g>
</svg>
